<?xml version="1.0" ?><svg viewBox="0 0 64 64" xmlns="http://www.w3.org/2000/svg"><defs><style>.cls-1{fill:#ae66d3;}.cls-2{fill:#fbae36;}.cls-3{fill:#803cbf;}.cls-4{fill:#16244d;}</style></defs><g id="Mercury"><path class="cls-1" d="M60,32A28,28,0,1,1,32,4,28,28,0,0,1,60,32Z" id="path3612-6"/><ellipse class="cls-2" cx="30.33" cy="22.26" id="path3643-1" rx="2.86" ry="1.77"/><path class="cls-3" d="M32,4a28.61,28.61,0,0,0-3.82.26,28,28,0,0,1,0,55.48A28.73,28.73,0,0,0,32,60,28,28,0,0,0,32,4Z" id="path3695"/><ellipse class="cls-3" cx="30.33" cy="22.26" rx="2.86" ry="1.77"/><path class="cls-4" d="M41.26,34.7h5.91a1,1,0,0,0,0-2H41.26a1,1,0,0,0,0,2Z"/><path class="cls-4" d="M32,61A29,29,0,1,0,3,32,29,29,0,0,0,32,61Zm-8.93-3.52h.22a1,1,0,0,0,0-2h-4.6A27.54,27.54,0,0,1,11.91,50h5.93a1,1,0,0,0,0-2H10.28a27.89,27.89,0,0,1-2.14-3.41H29.5a1.71,1.71,0,0,1,0,3.41H22.89a1,1,0,1,0,0,2H29.5a3.71,3.71,0,0,0,0-7.41H7.18a25.65,25.65,0,0,1-1-2.86H23.69a1,1,0,0,0,0-2H5.62a28.06,28.06,0,0,1-.48-3H28.3a1,1,0,0,0,0-2H5c0-.24,0-.47,0-.7a28,28,0,0,1,.21-3.32H58.79A28,28,0,0,1,59,32c0,.23,0,.46,0,.7H52a1,1,0,1,0,0,2h6.84a28.06,28.06,0,0,1-.48,3H40a1,1,0,0,0,0,2H57.86a26.36,26.36,0,0,1-2,4.78H50.44a1,1,0,0,0,0,2h4.3a28,28,0,0,1-2.15,2.91H36.89a1,1,0,0,0,0,2H50.71a27.08,27.08,0,0,1-5.4,4h-8.4a1,1,0,0,0,0,2h4a27,27,0,0,1-17.86,0Zm17.86-51h-4a1,1,0,0,0,0,2h8.4a27.29,27.29,0,0,1,4.28,3H41.16a1,1,0,0,0,0,2H51.67a27.25,27.25,0,0,1,4.1,5.66H37.27a8.12,8.12,0,0,0-6.94-3.3,8.08,8.08,0,0,0-6.93,3.3H17.55a1,1,0,0,0,0,2H24a1,1,0,0,0,.89-.56c.06-.11,1.44-2.74,5.48-2.74s5.43,2.63,5.48,2.74a1,1,0,0,0,.9.56h20a26.69,26.69,0,0,1,1.73,5.48H5.53A26.69,26.69,0,0,1,7.26,21.2h5.37a1,1,0,0,0,0-2H8.23a27.16,27.16,0,0,1,4.11-5.68l.09,0h5.19a1,1,0,0,0,0-2H14.41a27.29,27.29,0,0,1,4.28-3h4.6a1,1,0,0,0,0-2h-.22a27,27,0,0,1,17.86,0Z"/><path class="cls-4" d="M36.11,38.75a1,1,0,0,0-1-1H29.2a1,1,0,0,0,0,2h5.91A1,1,0,0,0,36.11,38.75Z"/><path class="cls-4" d="M30.33,25c2.17,0,3.87-1.22,3.87-2.77s-1.7-2.77-3.87-2.77-3.86,1.22-3.86,2.77S28.17,25,30.33,25Zm0-3.54c1.16,0,1.87.54,1.87.77s-.71.77-1.87.77-1.86-.53-1.86-.77S29.18,21.49,30.33,21.49Z"/><path class="cls-4" d="M38.05,24.83h8.36a1,1,0,0,0,0-2H38.05a1,1,0,0,0,0,2Z"/><path class="cls-4" d="M43.1,46.53a1,1,0,0,0,0-2H36.27a1,1,0,0,0,0,2Z"/><path class="cls-4" d="M43.45,43.31h4.88a1,1,0,0,0,0-2H43.45a1,1,0,0,0,0,2Z"/><path class="cls-4" d="M20.43,12.54a1,1,0,0,0,1,1H35.5a1,1,0,0,0,0-2H21.43A1,1,0,0,0,20.43,12.54Z"/><path class="cls-4" d="M27.1,8.52h4.15a1,1,0,0,0,0-2H27.1a1,1,0,0,0,0,2Z"/><path class="cls-4" d="M31.25,55.48H27.1a1,1,0,0,0,0,2h4.15a1,1,0,0,0,0-2Z"/><path class="cls-4" d="M30.21,52.6a1,1,0,0,0-1-1H22.45a1,1,0,1,0,0,2h6.76A1,1,0,0,0,30.21,52.6Z"/></g></svg>